<mxfile host="app.diagrams.net" modified="2022-10-20T07:36:35.524Z" agent="5.0 (Windows NT 10.0; Win64; x64) AppleWebKit/537.36 (KHTML, like Gecko) Chrome/105.0.0.0 Safari/537.36 Edg/105.0.1343.53" etag="iBkOcLxDspKWUZm0Osu5" version="20.4.2" type="github">
  <diagram id="ZtL50HkcKwbttwkBKwMb" name="Page-1">
    <mxGraphModel dx="869" dy="539" grid="1" gridSize="10" guides="1" tooltips="1" connect="1" arrows="1" fold="1" page="1" pageScale="1" pageWidth="827" pageHeight="1169" math="0" shadow="0">
      <root>
        <mxCell id="0" />
        <mxCell id="1" parent="0" />
        <mxCell id="fSgT0d3XuTZeO5yn5J---1" value="" style="edgeStyle=orthogonalEdgeStyle;rounded=0;orthogonalLoop=1;jettySize=auto;html=1;" edge="1" parent="1" source="fSgT0d3XuTZeO5yn5J---2" target="fSgT0d3XuTZeO5yn5J---18">
          <mxGeometry relative="1" as="geometry" />
        </mxCell>
        <mxCell id="fSgT0d3XuTZeO5yn5J---2" value="Daily&lt;br&gt;&lt;font color=&quot;#ff3333&quot;&gt;(extract base)&lt;/font&gt;" style="rounded=1;whiteSpace=wrap;html=1;" vertex="1" parent="1">
          <mxGeometry x="286" y="70" width="120" height="60" as="geometry" />
        </mxCell>
        <mxCell id="fSgT0d3XuTZeO5yn5J---3" style="edgeStyle=orthogonalEdgeStyle;rounded=0;orthogonalLoop=1;jettySize=auto;html=1;startArrow=none;" edge="1" parent="1" source="fSgT0d3XuTZeO5yn5J---14">
          <mxGeometry relative="1" as="geometry">
            <mxPoint x="482" y="180" as="targetPoint" />
          </mxGeometry>
        </mxCell>
        <mxCell id="fSgT0d3XuTZeO5yn5J---4" value="" style="edgeStyle=orthogonalEdgeStyle;rounded=0;orthogonalLoop=1;jettySize=auto;html=1;" edge="1" parent="1" source="fSgT0d3XuTZeO5yn5J---5" target="fSgT0d3XuTZeO5yn5J---14">
          <mxGeometry relative="1" as="geometry" />
        </mxCell>
        <mxCell id="fSgT0d3XuTZeO5yn5J---5" value="Check_in&lt;br&gt;&lt;font color=&quot;#ff3333&quot;&gt;(compare_cycle)&lt;/font&gt;" style="rounded=1;whiteSpace=wrap;html=1;" vertex="1" parent="1">
          <mxGeometry x="422" y="70" width="120" height="60" as="geometry" />
        </mxCell>
        <mxCell id="fSgT0d3XuTZeO5yn5J---6" value="" style="edgeStyle=orthogonalEdgeStyle;rounded=0;orthogonalLoop=1;jettySize=auto;html=1;fontColor=#000000;" edge="1" parent="1" source="fSgT0d3XuTZeO5yn5J---7" target="fSgT0d3XuTZeO5yn5J---29">
          <mxGeometry relative="1" as="geometry" />
        </mxCell>
        <mxCell id="fSgT0d3XuTZeO5yn5J---7" value="cycle_base&lt;br&gt;7d ago" style="rhombus;whiteSpace=wrap;html=1;rounded=1;" vertex="1" parent="1">
          <mxGeometry x="349" y="262" width="90" height="58" as="geometry" />
        </mxCell>
        <mxCell id="fSgT0d3XuTZeO5yn5J---8" style="edgeStyle=orthogonalEdgeStyle;rounded=0;orthogonalLoop=1;jettySize=auto;html=1;entryX=1;entryY=0.5;entryDx=0;entryDy=0;fontColor=#000000;" edge="1" parent="1" source="fSgT0d3XuTZeO5yn5J---10" target="fSgT0d3XuTZeO5yn5J---26">
          <mxGeometry relative="1" as="geometry">
            <Array as="points">
              <mxPoint x="482" y="390" />
            </Array>
          </mxGeometry>
        </mxCell>
        <mxCell id="fSgT0d3XuTZeO5yn5J---9" value="&lt;b&gt;&lt;font color=&quot;#ff3333&quot;&gt;DIFF&lt;/font&gt;&lt;/b&gt;" style="edgeStyle=orthogonalEdgeStyle;rounded=0;orthogonalLoop=1;jettySize=auto;html=1;fontColor=#000000;" edge="1" parent="1" source="fSgT0d3XuTZeO5yn5J---10">
          <mxGeometry relative="1" as="geometry">
            <mxPoint x="426" y="360" as="targetPoint" />
            <Array as="points">
              <mxPoint x="482" y="360" />
            </Array>
          </mxGeometry>
        </mxCell>
        <mxCell id="fSgT0d3XuTZeO5yn5J---10" value="now_cycle" style="rhombus;whiteSpace=wrap;html=1;rounded=1;" vertex="1" parent="1">
          <mxGeometry x="439" y="260" width="86" height="58" as="geometry" />
        </mxCell>
        <mxCell id="fSgT0d3XuTZeO5yn5J---11" value="" style="edgeStyle=orthogonalEdgeStyle;rounded=0;orthogonalLoop=1;jettySize=auto;html=1;" edge="1" parent="1" source="fSgT0d3XuTZeO5yn5J---12" target="fSgT0d3XuTZeO5yn5J---19">
          <mxGeometry relative="1" as="geometry" />
        </mxCell>
        <mxCell id="fSgT0d3XuTZeO5yn5J---12" value="diff_cycle" style="ellipse;whiteSpace=wrap;html=1;" vertex="1" parent="1">
          <mxGeometry x="296" y="475" width="96" height="50" as="geometry" />
        </mxCell>
        <mxCell id="fSgT0d3XuTZeO5yn5J---13" value="" style="edgeStyle=orthogonalEdgeStyle;rounded=0;orthogonalLoop=1;jettySize=auto;html=1;fontColor=#000000;" edge="1" parent="1" source="fSgT0d3XuTZeO5yn5J---14" target="fSgT0d3XuTZeO5yn5J---10">
          <mxGeometry relative="1" as="geometry" />
        </mxCell>
        <mxCell id="fSgT0d3XuTZeO5yn5J---14" value="CFG" style="ellipse;whiteSpace=wrap;html=1;" vertex="1" parent="1">
          <mxGeometry x="437" y="170" width="90" height="50" as="geometry" />
        </mxCell>
        <mxCell id="fSgT0d3XuTZeO5yn5J---15" value="" style="edgeStyle=orthogonalEdgeStyle;rounded=0;orthogonalLoop=1;jettySize=auto;html=1;" edge="1" parent="1" source="fSgT0d3XuTZeO5yn5J---18" target="fSgT0d3XuTZeO5yn5J---7">
          <mxGeometry relative="1" as="geometry" />
        </mxCell>
        <mxCell id="fSgT0d3XuTZeO5yn5J---16" value="" style="edgeStyle=orthogonalEdgeStyle;rounded=0;orthogonalLoop=1;jettySize=auto;html=1;fontColor=#FF3333;" edge="1" parent="1" source="fSgT0d3XuTZeO5yn5J---18" target="fSgT0d3XuTZeO5yn5J---20">
          <mxGeometry relative="1" as="geometry" />
        </mxCell>
        <mxCell id="fSgT0d3XuTZeO5yn5J---17" style="edgeStyle=orthogonalEdgeStyle;rounded=0;orthogonalLoop=1;jettySize=auto;html=1;entryX=0.5;entryY=0;entryDx=0;entryDy=0;fontColor=#FF3333;" edge="1" parent="1" source="fSgT0d3XuTZeO5yn5J---18" target="fSgT0d3XuTZeO5yn5J---24">
          <mxGeometry relative="1" as="geometry" />
        </mxCell>
        <mxCell id="fSgT0d3XuTZeO5yn5J---18" value="archive_bases" style="rhombus;whiteSpace=wrap;html=1;rounded=1;" vertex="1" parent="1">
          <mxGeometry x="296" y="170" width="100" height="50" as="geometry" />
        </mxCell>
        <mxCell id="fSgT0d3XuTZeO5yn5J---19" value="comment to gerrit" style="whiteSpace=wrap;html=1;" vertex="1" parent="1">
          <mxGeometry x="440" y="470" width="120" height="60" as="geometry" />
        </mxCell>
        <mxCell id="fSgT0d3XuTZeO5yn5J---20" value="cycle_20221018&lt;br&gt;cycle_20221019&lt;br&gt;cycle_20221020&lt;br&gt;…………" style="whiteSpace=wrap;html=1;rounded=1;align=left;" vertex="1" parent="1">
          <mxGeometry x="146" y="165" width="120" height="60" as="geometry" />
        </mxCell>
        <mxCell id="fSgT0d3XuTZeO5yn5J---21" value="" style="edgeStyle=orthogonalEdgeStyle;rounded=0;orthogonalLoop=1;jettySize=auto;html=1;fontColor=#FF3333;" edge="1" parent="1" source="fSgT0d3XuTZeO5yn5J---22" target="fSgT0d3XuTZeO5yn5J---14">
          <mxGeometry relative="1" as="geometry" />
        </mxCell>
        <mxCell id="fSgT0d3XuTZeO5yn5J---22" value="optmization&lt;br&gt;&lt;div style=&quot;&quot;&gt;&lt;span style=&quot;background-color: initial;&quot;&gt;inlineasm_mte1&lt;/span&gt;&lt;/div&gt;&lt;div style=&quot;&quot;&gt;…………&lt;/div&gt;" style="whiteSpace=wrap;html=1;rounded=1;align=left;" vertex="1" parent="1">
          <mxGeometry x="562" y="165" width="120" height="60" as="geometry" />
        </mxCell>
        <mxCell id="fSgT0d3XuTZeO5yn5J---23" value="" style="edgeStyle=orthogonalEdgeStyle;rounded=0;orthogonalLoop=1;jettySize=auto;html=1;fontColor=#000000;" edge="1" parent="1" source="fSgT0d3XuTZeO5yn5J---24" target="fSgT0d3XuTZeO5yn5J---26">
          <mxGeometry relative="1" as="geometry" />
        </mxCell>
        <mxCell id="fSgT0d3XuTZeO5yn5J---24" value="cycle_base&lt;br&gt;1d ago" style="rhombus;whiteSpace=wrap;html=1;rounded=1;" vertex="1" parent="1">
          <mxGeometry x="253" y="262" width="90" height="58" as="geometry" />
        </mxCell>
        <mxCell id="fSgT0d3XuTZeO5yn5J---25" style="edgeStyle=orthogonalEdgeStyle;rounded=0;orthogonalLoop=1;jettySize=auto;html=1;entryX=0.5;entryY=0;entryDx=0;entryDy=0;fontColor=#000000;" edge="1" parent="1" source="fSgT0d3XuTZeO5yn5J---26" target="fSgT0d3XuTZeO5yn5J---12">
          <mxGeometry relative="1" as="geometry" />
        </mxCell>
        <mxCell id="fSgT0d3XuTZeO5yn5J---26" value="&lt;b&gt;&amp;gt; 3%&lt;/b&gt;" style="ellipse;whiteSpace=wrap;html=1;rounded=1;" vertex="1" parent="1">
          <mxGeometry x="272" y="370" width="52" height="40" as="geometry" />
        </mxCell>
        <mxCell id="fSgT0d3XuTZeO5yn5J---27" style="edgeStyle=orthogonalEdgeStyle;rounded=0;orthogonalLoop=1;jettySize=auto;html=1;entryX=0.5;entryY=0;entryDx=0;entryDy=0;fontColor=#000000;" edge="1" parent="1" source="fSgT0d3XuTZeO5yn5J---29" target="fSgT0d3XuTZeO5yn5J---12">
          <mxGeometry relative="1" as="geometry">
            <Array as="points">
              <mxPoint x="394" y="440" />
              <mxPoint x="344" y="440" />
            </Array>
          </mxGeometry>
        </mxCell>
        <mxCell id="fSgT0d3XuTZeO5yn5J---28" value="&lt;b&gt;&lt;font color=&quot;#ff3333&quot;&gt;OR&lt;/font&gt;&lt;/b&gt;" style="edgeLabel;html=1;align=center;verticalAlign=middle;resizable=0;points=[];fontColor=#000000;" vertex="1" connectable="0" parent="fSgT0d3XuTZeO5yn5J---27">
          <mxGeometry x="0.5172" y="-3" relative="1" as="geometry">
            <mxPoint x="1" y="-1" as="offset" />
          </mxGeometry>
        </mxCell>
        <mxCell id="fSgT0d3XuTZeO5yn5J---29" value="&lt;b&gt;&amp;gt; 5%&lt;/b&gt;" style="ellipse;whiteSpace=wrap;html=1;rounded=1;" vertex="1" parent="1">
          <mxGeometry x="368" y="340" width="52" height="40" as="geometry" />
        </mxCell>
      </root>
    </mxGraphModel>
  </diagram>
</mxfile>
